# xmcd
# 
# Track frame offsets:
#     150
#     14953
#     28765
#     42825
#     57582
#     71427
#     84685
#     98400
#     111274
#     126201
#     140070
#     154758
#     168774
#     181169
#     207605
#     237035
#     264564
#     278980
#     292701
#     306492
#     320376
# 
# Disc length: 4467
# 
# Revision: 1
# Processed by: cddbd v1.5.2PL0 Copyright (c) Steve Scherf et al.
# Submitted via: fre:ac v1.0.17
# 
DISCID=34117115
DTITLE=Lionel HAMPTON - Les Triomphes Du Jazz 2-19
DYEAR=0
DGENRE=Jazz
TTITLE0=Flying home
TTITLE1=Loose wig
TTITLE2=Chop Chop
TTITLE3=Hamp's Boogie Woogie
TTITLE4=Million dollar smile
TTITLE5=Overtime
TTITLE6=Tempo's Boogie
TTITLE7=I know that you know
TTITLE8=Blow Top Blues
TTITLE9=Beulah's Boogie
TTITLE10=Hey-Ba-Ba-Re-Bop
TTITLE11=Air mail Special - part I
TTITLE12=Air mail Special - part II
TTITLE13=Perdido
TTITLE14=That's my desire
TTITLE15=Central Avenue breakdown
TTITLE16=Star Dust
TTITLE17=Hawk's nest
TTITLE18=Mingus fingers
TTITLE19=Muchacho Azul
TTITLE20=Midnight Sun
EXTD=L'art de la fougue
EXTT0=
EXTT1=
EXTT2=
EXTT3=
EXTT4=
EXTT5=
EXTT6=
EXTT7=
EXTT8=
EXTT9=
EXTT10=
EXTT11=
EXTT12=
EXTT13=
EXTT14=
EXTT15=
EXTT16=
EXTT17=
EXTT18=
EXTT19=
EXTT20=
PLAYORDER=
